<svg width="31" height="31" viewBox="0 0 31 31" fill="none" xmlns="http://www.w3.org/2000/svg">
<circle cx="15.5" cy="15.5" r="15.5" fill="#C4C4C4"/>
<path fill-rule="evenodd" clip-rule="evenodd" d="M9.00656 18.1959C9.81113 17.3913 10.9024 16.9393 12.0402 16.9393H18.9045C20.0423 16.9393 21.1335 17.3913 21.9381 18.1959C22.7426 19.0004 23.1946 20.0917 23.1946 21.2295V22.9456C23.1946 23.4194 22.8105 23.8036 22.3366 23.8036H8.60804C8.13416 23.8036 7.75 23.4194 7.75 22.9456V21.2295C7.75 20.0917 8.202 19.0004 9.00656 18.1959ZM12.0402 18.6554C11.3575 18.6554 10.7027 18.9266 10.22 19.4093C9.73727 19.892 9.46607 20.5468 9.46607 21.2295V22.0875H21.4786V21.2295C21.4786 20.5468 21.2074 19.8921 20.7246 19.4093C20.2419 18.9266 19.5872 18.6554 18.9045 18.6554H12.0402Z" fill="#F5F5F5"/>
<path fill-rule="evenodd" clip-rule="evenodd" d="M15.4724 8.35892C14.0508 8.35892 12.8983 9.51139 12.8983 10.933C12.8983 12.3547 14.0508 13.5071 15.4724 13.5071C16.8941 13.5071 18.0465 12.3547 18.0465 10.933C18.0465 9.51139 16.8941 8.35892 15.4724 8.35892ZM11.1823 10.933C11.1823 8.56363 13.103 6.64285 15.4724 6.64285C17.8418 6.64285 19.7626 8.56363 19.7626 10.933C19.7626 13.3024 17.8418 15.2232 15.4724 15.2232C13.103 15.2232 11.1823 13.3024 11.1823 10.933Z" fill="#F5F5F5"/>
</svg>
