<svg width="31" height="35" viewBox="0 0 31 35" fill="none" xmlns="http://www.w3.org/2000/svg">
<path fill-rule="evenodd" clip-rule="evenodd" d="M4.48 4.56364C4.7444 4.20882 5.15934 4 5.6 4H22.4C22.8407 4 23.2556 4.20882 23.52 4.56364L27.72 10.2C27.9018 10.4439 28 10.7406 28 11.0455V30.7727C28 31.8939 27.5575 32.9691 26.7698 33.7619C25.9822 34.5546 24.9139 35 23.8 35H4.2C3.08609 35 2.0178 34.5546 1.23015 33.7619C0.442499 32.9691 0 31.8939 0 30.7727V11.0455C0 10.7406 0.098249 10.4439 0.28 10.2L4.48 4.56364ZM6.3 6.81818L2.8 11.5152V30.7727C2.8 31.1464 2.9475 31.5048 3.21005 31.7691C3.4726 32.0334 3.8287 32.1818 4.2 32.1818H23.8C24.1713 32.1818 24.5274 32.0334 24.7899 31.7691C25.0525 31.5048 25.2 31.1464 25.2 30.7727V11.5152L21.7 6.81818H6.3Z" fill="#EE6624"/>
<path fill-rule="evenodd" clip-rule="evenodd" d="M0 11C0 10.1716 0.626801 9.5 1.4 9.5H26.6C27.3732 9.5 28 10.1716 28 11C28 11.8284 27.3732 12.5 26.6 12.5H1.4C0.626801 12.5 0 11.8284 0 11Z" fill="#EE6624"/>
<path fill-rule="evenodd" clip-rule="evenodd" d="M8.4 15.5C9.1732 15.5 9.8 16.097 9.8 16.8333C9.8 17.8942 10.2425 18.9116 11.0302 19.6618C11.8178 20.4119 12.8861 20.8333 14 20.8333C15.1139 20.8333 16.1822 20.4119 16.9698 19.6618C17.7575 18.9116 18.2 17.8942 18.2 16.8333C18.2 16.097 18.8268 15.5 19.6 15.5C20.3732 15.5 21 16.097 21 16.8333C21 18.6014 20.2625 20.2971 18.9497 21.5474C17.637 22.7976 15.8565 23.5 14 23.5C12.1435 23.5 10.363 22.7976 9.05025 21.5474C7.7375 20.2971 7 18.6014 7 16.8333C7 16.097 7.6268 15.5 8.4 15.5Z" fill="#EE6624"/>
<circle cx="25.1001" cy="5" r="5" fill="#E0245E"/>
</svg>
