<svg width="90" height="90" viewBox="0 0 90 90" fill="none" xmlns="http://www.w3.org/2000/svg">
<g opacity="0.6">
<path fill-rule="evenodd" clip-rule="evenodd" d="M45 8.18182C24.6659 8.18182 8.18182 24.6659 8.18182 45C8.18182 65.3341 24.6659 81.8182 45 81.8182C65.3341 81.8182 81.8182 65.3341 81.8182 45C81.8182 24.6659 65.3341 8.18182 45 8.18182ZM0 45C0 20.1472 20.1472 0 45 0C69.8528 0 90 20.1472 90 45C90 69.8528 69.8528 90 45 90C20.1472 90 0 69.8528 0 45Z" fill="white"/>
<path d="M33 28.6364L57.5455 45L33 61.3636V28.6364Z" fill="white"/>
</g>
</svg>
